<?xml version="1.0" standalone="no"?>
<!DOCTYPE svg PUBLIC "-//W3C//DTD SVG 20010904//EN"
 "http://www.w3.org/TR/2001/REC-SVG-20010904/DTD/svg10.dtd">
<svg version="1.0" xmlns="http://www.w3.org/2000/svg"
 width="666.000000pt" height="666.000000pt" viewBox="0 0 666.000000 666.000000"
 preserveAspectRatio="xMidYMid meet">
<metadata>
Created by potrace 1.14, written by Peter Selinger 2001-2017
</metadata>
<g transform="translate(0.000000,666.000000) scale(0.100000,-0.100000)"
fill="#000000" stroke="none">
<path d="M2995 4874 c-64 -13 -71 -14 -155 -38 -118 -32 -168 -49 -240 -84
-41 -20 -77 -39 -80 -42 -3 -3 -18 -11 -35 -18 -43 -19 -188 -118 -234 -161
-22 -20 -63 -56 -93 -81 -49 -41 -108 -105 -161 -174 -12 -15 -37 -45 -54 -66
-18 -20 -33 -42 -33 -47 0 -6 -6 -16 -14 -22 -8 -7 -18 -26 -21 -42 -4 -16
-10 -29 -15 -29 -4 0 -10 -10 -13 -22 -3 -13 -19 -61 -35 -108 -43 -121 -63
-183 -64 -197 -1 -7 -5 -13 -9 -13 -10 0 -20 -29 -26 -75 -2 -22 -8 -57 -13
-79 -5 -21 -7 -47 -5 -57 2 -10 -1 -21 -6 -25 -6 -4 -6 -11 2 -20 6 -8 8 -14
3 -14 -15 0 -6 -316 12 -410 4 -19 7 -44 8 -55 2 -31 38 -138 52 -155 7 -8 13
-18 14 -22 1 -9 7 -30 16 -55 4 -10 8 -29 10 -43 2 -14 8 -26 14 -28 5 -2 8
-8 5 -13 -3 -5 0 -19 7 -31 7 -13 13 -25 14 -28 4 -17 19 -47 30 -60 7 -8 12
-17 12 -20 0 -14 27 -60 35 -60 6 0 8 -3 4 -6 -6 -6 41 -76 56 -82 4 -2 7 -10
7 -18 0 -8 5 -14 10 -14 6 0 10 -5 10 -10 0 -6 11 -23 24 -38 64 -71 78 -90
99 -134 12 -26 27 -48 33 -48 6 0 39 -18 73 -40 34 -22 64 -40 66 -40 3 0 19
-13 37 -30 17 -16 37 -30 43 -30 7 0 16 -7 19 -16 3 -8 10 -12 16 -9 5 3 10 2
10 -3 0 -5 8 -12 18 -15 9 -4 35 -17 57 -31 35 -22 112 -61 133 -67 4 -2 13
-9 20 -16 8 -7 18 -11 23 -8 5 4 9 1 9 -5 0 -6 5 -8 10 -5 6 3 10 1 10 -6 0
-7 3 -10 6 -7 3 3 35 -5 72 -19 37 -13 85 -28 107 -33 22 -4 51 -11 65 -14 77
-19 385 -28 480 -14 30 4 73 10 95 13 22 3 65 12 95 21 70 19 69 19 110 28
113 26 391 159 465 222 16 13 33 24 38 24 15 0 247 241 247 256 0 8 4 14 9 14
14 0 144 204 146 230 1 3 15 34 31 70 71 151 103 248 150 461 17 75 25 189 14
189 -4 0 -4 23 0 50 4 29 2 50 -3 50 -6 0 -5 5 1 13 5 6 8 26 5 42 -3 17 -7
57 -9 89 -7 97 -67 313 -111 399 -13 27 -26 59 -29 70 -2 11 -9 27 -16 36 -21
27 -35 55 -42 87 -4 17 -25 47 -47 67 -21 20 -40 40 -40 44 -2 11 -58 94 -80
118 -156 172 -177 192 -258 248 -44 32 -83 57 -86 57 -3 0 -22 11 -43 23 -20
13 -81 47 -134 75 -54 28 -106 56 -115 62 -26 14 -77 34 -85 32 -5 -1 -8 2 -8
7 0 11 -31 18 -125 26 -38 4 -73 9 -76 11 -4 2 -24 6 -45 10 -22 3 -50 8 -64
11 -49 12 -375 10 -435 -3z"/>
</g>
</svg>
